<svg xmlns="http://www.w3.org/2000/svg" viewBox="0 0 800 220" role="img" aria-labelledby="theming-title theming-desc">
  <title id="theming-title">acss-kit theming pipeline</title>
  <desc id="theming-desc">A four-stage pipeline. The role catalogue defines named roles, the OKLCH palette algorithm computes color values, the validator checks WCAG contrast pairs, and the output writes CSS custom properties on the :root and [data-theme="dark"] selectors.</desc>
  <style>
    .box { fill: #f6f8fa; stroke: #57606a; stroke-width: 1.5; }
    .header { fill: #fff8c5; stroke: #57606a; stroke-width: 1.5; }
    .text { font: 13px -apple-system, BlinkMacSystemFont, "Segoe UI", sans-serif; fill: #1f2328; }
    .header-text { font: bold 14px -apple-system, BlinkMacSystemFont, "Segoe UI", sans-serif; fill: #1f2328; }
    .small { font: 11px -apple-system, BlinkMacSystemFont, "Segoe UI", sans-serif; fill: #57606a; }
    .arrow { stroke: #57606a; stroke-width: 2; fill: none; }
  </style>
  <defs>
    <marker id="arrowhead2" markerWidth="10" markerHeight="7" refX="9" refY="3.5" orient="auto">
      <polygon points="0 0, 10 3.5, 0 7" fill="#57606a"/>
    </marker>
  </defs>

  <rect class="box" x="10" y="40" width="170" height="140" rx="6"/>
  <rect class="header" x="10" y="40" width="170" height="32" rx="6"/>
  <rect class="header" x="10" y="60" width="170" height="12"/>
  <text class="header-text" x="95" y="62" text-anchor="middle">Role catalogue</text>
  <text class="small" x="95" y="95" text-anchor="middle">15 required roles</text>
  <text class="small" x="95" y="115" text-anchor="middle">+ 3 optional</text>
  <text class="small" x="95" y="138" text-anchor="middle">--color-primary,</text>
  <text class="small" x="95" y="155" text-anchor="middle">--color-text, …</text>

  <line class="arrow" x1="183" y1="110" x2="208" y2="110" marker-end="url(#arrowhead2)"/>

  <rect class="box" x="210" y="40" width="190" height="140" rx="6"/>
  <rect class="header" x="210" y="40" width="190" height="32" rx="6"/>
  <rect class="header" x="210" y="60" width="190" height="12"/>
  <text class="header-text" x="305" y="62" text-anchor="middle">Palette algorithm</text>
  <text class="small" x="305" y="95" text-anchor="middle">OKLCH lightness targets</text>
  <text class="small" x="305" y="115" text-anchor="middle">+ state hue offsets</text>
  <text class="small" x="305" y="138" text-anchor="middle">generate_palette.py</text>
  <text class="small" x="305" y="155" text-anchor="middle">light · dark · brand</text>

  <line class="arrow" x1="403" y1="110" x2="428" y2="110" marker-end="url(#arrowhead2)"/>

  <rect class="box" x="430" y="40" width="170" height="140" rx="6"/>
  <rect class="header" x="430" y="40" width="170" height="32" rx="6"/>
  <rect class="header" x="430" y="60" width="170" height="12"/>
  <text class="header-text" x="515" y="62" text-anchor="middle">Validate</text>
  <text class="small" x="515" y="95" text-anchor="middle">10 contrast pairs</text>
  <text class="small" x="515" y="115" text-anchor="middle">WCAG 2.2 AA</text>
  <text class="small" x="515" y="138" text-anchor="middle">validate_theme.py</text>
  <text class="small" x="515" y="155" text-anchor="middle">fail → revert</text>

  <line class="arrow" x1="603" y1="110" x2="628" y2="110" marker-end="url(#arrowhead2)"/>

  <rect class="box" x="630" y="40" width="160" height="140" rx="6"/>
  <rect class="header" x="630" y="40" width="160" height="32" rx="6"/>
  <rect class="header" x="630" y="60" width="160" height="12"/>
  <text class="header-text" x="710" y="62" text-anchor="middle">CSS output</text>
  <text class="small" x="710" y="95" text-anchor="middle">light.css · dark.css</text>
  <text class="small" x="710" y="115" text-anchor="middle">brand-*.css</text>
  <text class="small" x="710" y="138" text-anchor="middle">:root { --color-* }</text>
  <text class="small" x="710" y="155" text-anchor="middle">[data-theme="dark"]</text>
</svg>
